<svg width="512" height="512" viewBox="0 0 512 512" xmlns="http://www.w3.org/2000/svg"><g fill-rule="evenodd"><path d="M256 0c141.385 0 256 114.615 256 256 0 141.386-114.615 256-256 256s-256-114.614-256-256c0-141.385 114.615-256 256-256" fill="#0E0E11"/><path d="M180.042 237.583l-78.524 33.837c-.122-1.353-.189-2.721-.189-4.106 0-24.839 20.135-44.974 44.974-44.974 13.438 0 25.499 5.898 33.739 15.243zm-33.739-48.876c37.053 0 68.112 25.638 76.42 60.143l-31.682 13.853-.007-.066-32.413 14.241-77.755 33.997c-8.318-12.47-13.17-27.448-13.17-43.561 0-43.414 35.193-78.607 78.607-78.607zm54.928 134.838c-28.145 26.713-65.379 29.335-98.096 9.473l18.485-28.104c18.617 11.128 37.319 9.323 56.107-5.428l23.504 24.06zm32.007-19.457l-.198-148.652h28.163v144.638c0 1.388.172 2.61 1.992 3.317l24.5 9.528-11.038 28.7-28.7-12.143c-10.883-4.605-14.7-11.277-14.719-25.389z" fill="#fff"/><path d="M339.28 301.587c-10.557-8.208-17.354-21.018-17.354-35.426 0-12.809 5.377-24.354 13.985-32.529l-18.19-29.48c-18.285 14.487-30.028 36.87-30.028 62.009 0 27.096 13.632 51.002 34.407 65.254l17.179-29.828" fill="#2091C3"/><path d="M351.61 223.938c4.74-1.705 9.85-2.639 15.178-2.639 19.208 0 35.588 12.077 41.985 29.048l34.856-2.912c-8.414-34.64-39.613-60.366-76.841-60.366-10.519 0-20.549 2.071-29.73 5.799l14.552 31.071" fill="#FAEC32"/><path d="M411.595 268.335c-1.135 23.766-20.76 42.688-44.807 42.688-3.77 0-7.428-.472-10.925-1.347l-13.673 31.657c7.745 2.531 16.007 3.92 24.598 3.92 42.591 0 77.302-33.67 79.009-75.842l-34.203-1.077" fill="#D0352A"/></g></svg>