<svg width="512" height="398" viewBox="0 0 512 398" xmlns="http://www.w3.org/2000/svg" preserveAspectRatio="xMidYMid"><path fill="#6C6BBD" d="M325.223 282.629h-138.445v-248.803h138.445z"/><path d="M195.565 158.233c0-50.471 23.631-95.429 60.43-124.401-26.91-21.186-60.873-33.832-97.783-33.832-87.381 0-158.213 70.842-158.213 158.233s70.832 158.233 158.213 158.233c36.91 0 70.872-12.645 97.783-33.832-36.799-28.973-60.43-73.931-60.43-124.401" fill="#D32011"/><path d="M512 158.233c0 87.391-70.832 158.233-158.213 158.233-36.91 0-70.872-12.645-97.793-33.832 36.809-28.973 60.44-73.931 60.44-124.401 0-50.471-23.631-95.429-60.44-124.401 26.92-21.186 60.883-33.832 97.793-33.832 87.381 0 158.213 70.842 158.213 158.233" fill="#0099DF"/><path d="M372.065 352.934c1.841 0 4.487.352 6.509 1.147l-2.817 8.611c-1.932-.795-3.863-1.056-5.714-1.056-5.976 0-8.963 3.863-8.963 10.804v23.56h-9.144v-42.01h9.054v5.1c2.374-3.692 5.805-6.157 11.076-6.157zm-33.781 9.406h-14.939v18.983c0 4.215 1.489 7.032 6.066 7.032 2.374 0 5.362-.795 8.078-2.374l2.636 7.817c-2.897 2.022-7.464 3.259-11.418 3.259-10.814 0-14.587-5.805-14.587-15.563v-19.154h-8.531v-8.35h8.531v-12.746h9.225v12.746h14.939v8.35zm-116.987 8.963c.976-6.066 4.658-10.201 11.167-10.201 5.885 0 9.668 3.692 10.633 10.201h-21.8zm31.297 3.692c-.091-13.098-8.179-22.061-19.959-22.061-12.303 0-20.915 8.963-20.915 22.061 0 13.35 8.963 22.051 21.538 22.051 6.328 0 12.122-1.579 17.223-5.885l-4.487-6.77c-3.511 2.817-7.998 4.396-12.213 4.396-5.885 0-11.247-2.726-12.565-10.281h31.196c.091-1.147.181-2.284.181-3.511zm40.159-10.281c-2.545-1.589-7.726-3.612-13.088-3.612-5.01 0-7.998 1.851-7.998 4.929 0 2.807 3.159 3.601 7.112 4.125l4.306.614c9.144 1.328 14.677 5.191 14.677 12.575 0 7.998-7.032 13.712-19.154 13.712-6.861 0-13.189-1.76-18.198-5.452l4.306-7.122c3.078 2.374 7.656 4.396 13.983 4.396 6.237 0 9.577-1.841 9.577-5.1 0-2.364-2.374-3.692-7.384-4.386l-4.306-.614c-9.406-1.328-14.506-5.543-14.506-12.394 0-8.35 6.861-13.45 17.494-13.45 6.68 0 12.746 1.499 17.132 4.396l-3.954 7.384zm112.722-3.098c-1.881 0-3.622.332-5.241.986-1.61.664-3.008 1.589-4.185 2.777-1.177 1.187-2.103 2.616-2.777 4.275-.674 1.66-1.006 3.491-1.006 5.483 0 2.002.332 3.823 1.006 5.483.674 1.66 1.6 3.088 2.777 4.275 1.177 1.187 2.575 2.113 4.185 2.777 1.62.664 3.36.986 5.241.986 1.881 0 3.632-.322 5.241-.986 1.62-.664 3.028-1.589 4.205-2.777 1.197-1.187 2.123-2.616 2.807-4.275.674-1.66 1.006-3.481 1.006-5.483 0-1.992-.332-3.823-1.006-5.483-.684-1.66-1.61-3.088-2.807-4.275-1.177-1.187-2.585-2.113-4.205-2.777-1.61-.654-3.36-.986-5.241-.986zm0-8.682c3.259 0 6.277.563 9.054 1.7 2.777 1.127 5.181 2.686 7.203 4.668 2.032 1.982 3.612 4.326 4.758 7.022 1.147 2.706 1.72 5.644 1.72 8.813 0 3.169-.573 6.106-1.72 8.813-1.147 2.696-2.726 5.05-4.758 7.032-2.022 1.982-4.426 3.531-7.203 4.668-2.777 1.127-5.795 1.69-9.054 1.69-3.259 0-6.277-.563-9.054-1.69-2.777-1.137-5.161-2.686-7.173-4.668-2.012-1.982-3.591-4.336-4.738-7.032-1.147-2.706-1.72-5.644-1.72-8.813 0-3.169.573-6.106 1.72-8.813 1.147-2.696 2.726-5.04 4.738-7.022 2.012-1.982 4.396-3.541 7.173-4.668 2.777-1.137 5.795-1.7 9.054-1.7zm-237.576 22.061c0-7.384 4.839-13.45 12.746-13.45 7.555 0 12.655 5.805 12.655 13.45 0 7.646-5.1 13.44-12.655 13.44-7.907 0-12.746-6.056-12.746-13.44zm34.013 0v-21.005h-9.134v5.1c-2.907-3.783-7.293-6.157-13.269-6.157-11.78 0-21.005 9.225-21.005 22.061 0 12.826 9.225 22.061 21.005 22.061 5.976 0 10.362-2.374 13.269-6.157v5.1h9.134v-21.005zm-51.497 21.005v-26.367c0-9.929-6.328-16.609-16.518-16.7-5.362-.091-10.905 1.579-14.768 7.475-2.897-4.658-7.475-7.475-13.893-7.475-4.477 0-8.873 1.318-12.303 6.237v-5.181h-9.134v42.01h9.225v-23.289c0-7.293 4.044-11.167 10.281-11.167 6.066 0 9.144 3.954 9.144 11.076v23.379h9.225v-23.289c0-7.293 4.225-11.167 10.281-11.167 6.247 0 9.235 3.954 9.235 11.076v23.379h9.225z" fill="#110F0D"/></svg>