<?xml version="1.0" encoding="UTF-8"?><svg width="512px" height="228px" viewBox="0 0 512 228" version="1.1" xmlns="http://www.w3.org/2000/svg" xmlns:xlink="http://www.w3.org/1999/xlink" preserveAspectRatio="xMidYMid">    <g>        <path d="M194.393012,2.91934413 L127.362517,162.835981 L83.6279307,162.835981 L50.6390152,35.2086632 C48.6415692,27.3659907 46.9023855,24.479338 40.8152424,21.1644276 C30.8672422,15.7605353 14.4398018,10.7064412 0,7.56152628 L0.974204424,2.91934413 L71.3817235,2.91934413 C80.3424427,2.91934413 88.410686,8.88552894 90.4604383,19.2160188 L107.891505,111.76217 L150.923226,2.91934413 L194.393012,2.91934413 Z M253.515452,2.91934413 L219.307146,162.835981 L177.93288,162.835981 L212.141186,2.91934413 L253.515452,2.91934413 Z M307.779946,47.2292997 C307.920519,41.4984931 313.379987,35.3950043 325.331971,33.8356234 C331.252388,33.0706441 347.607907,32.4593145 366.134137,40.9950452 L373.381826,7.06461664 C363.427287,3.4652909 350.618787,0 334.684987,0 C293.784747,0 265.013025,21.723451 264.784186,52.8554937 C264.516116,75.8833325 285.334014,88.7179854 300.989937,96.3873934 C317.116616,104.220258 322.523778,109.254738 322.448588,116.253971 C322.334168,126.983297 309.571436,131.733361 297.704449,131.909894 C276.896358,132.240078 264.833223,126.286969 255.212137,121.804975 L247.702917,156.859989 C257.382847,161.296215 275.222557,165.150534 293.69975,165.346682 C337.179343,165.346682 365.617613,143.871686 365.745109,110.624508 C365.918374,68.4264188 307.397456,66.0857128 307.779946,47.2292997 Z M473.747765,162.835981 L512,162.835981 L478.579558,2.91934413 L443.285897,2.91934413 C435.325535,2.91934413 428.63687,7.53864228 425.668489,14.6424886 L363.587475,162.835981 L407.034377,162.835981 L415.651836,138.948358 L468.732901,138.948358 L473.747765,162.835981 Z M427.564591,106.178475 L449.350156,46.1243296 L461.864433,106.178475 L427.564591,106.178475 Z M306.46477,206.854329 L289.65484,206.854329 L289.65484,222.500444 L308.458947,222.500444 L308.458947,227.20474 L283.989416,227.20474 L283.989416,183.797068 L307.49455,183.797068 L307.49455,188.501364 L289.65484,188.501364 L289.65484,202.215416 L306.46477,202.215416 L306.46477,206.854329 Z M317.143423,181.481208 L322.808847,181.481208 L322.808847,227.203433 L317.143423,227.203433 L317.143423,181.481208 Z M347.787383,223.469091 C351.847658,223.469091 354.358359,222.759687 356.421188,221.860673 L357.450968,225.917679 C355.453522,226.816693 351.978424,227.911856 347.015866,227.911856 C337.424202,227.911856 331.693395,221.537028 331.693395,212.134975 C331.693395,202.732921 337.228053,195.390428 346.309731,195.390428 C356.548685,195.390428 359.190152,204.279226 359.190152,210.010032 C359.190152,211.167309 359.124769,212.004209 358.994003,212.64823 L337.100557,212.64823 C337.228053,220.314369 342.059846,223.469091 347.787383,223.469091 Z M353.714338,208.591224 C353.779721,205.050743 352.233417,199.447433 345.858589,199.447433 C340.0624,199.447433 337.613812,204.664984 337.16267,208.591224 L353.714338,208.591224 Z M390.022741,226.108597 C388.541819,226.818001 385.256331,227.913163 381.071829,227.913163 C371.669776,227.913163 365.55321,221.538336 365.55321,212.005517 C365.55321,202.410584 372.117648,195.391735 382.294488,195.391735 C385.64209,195.391735 388.603933,196.225367 390.150238,197.065536 L388.865465,201.380804 C387.50877,200.6714 385.383828,199.896613 382.294488,199.896613 C375.144874,199.896613 371.284017,205.241661 371.284017,211.685141 C371.284017,218.896869 375.919661,223.339633 382.101609,223.339633 C385.321714,223.339633 387.446657,222.568116 389.055075,221.858712 L390.022741,226.108597 Z M405.918292,188.564458 L405.918292,196.034449 L414.029034,196.034449 L414.029034,200.346447 L405.918292,200.346447 L405.918292,217.156377 C405.918292,221.023773 407.013455,223.210829 410.168177,223.210829 C411.711212,223.210829 412.616765,223.083332 413.453665,222.821801 L413.711927,227.140338 C412.616765,227.526097 410.877581,227.911856 408.687255,227.911856 C406.045788,227.911856 403.920846,227.009572 402.57069,225.53192 C401.024386,223.789467 400.380365,221.023773 400.380365,217.352526 L400.380365,200.346447 L395.548572,200.346447 L395.548572,196.034449 L400.380365,196.034449 L400.380365,190.238259 L405.918292,188.564458 Z M421.944935,205.759493 C421.944935,202.088246 421.876283,198.933524 421.686673,196.033795 L426.645962,196.033795 L426.904224,202.215743 L427.093835,202.215743 C428.512642,198.031241 431.987741,195.389774 435.786484,195.389774 C436.368391,195.389774 436.819533,195.455157 437.336058,195.51727 L437.336058,200.865587 C436.75415,200.734821 436.178781,200.734821 435.400725,200.734821 C431.412372,200.734821 428.574756,203.696664 427.803238,207.949819 C427.675742,208.721336 427.610359,209.685733 427.610359,210.591286 L427.610359,227.205067 L421.944935,227.205067 L421.944935,205.759493 Z M472.166481,211.361169 C472.166481,222.888165 464.114583,227.912836 456.644593,227.912836 C448.27232,227.912836 441.707882,221.727619 441.707882,211.877693 C441.707882,201.507974 448.595965,195.391408 457.161118,195.391408 C466.112029,195.391408 472.166481,201.893732 472.166481,211.361169 Z M447.500802,211.684814 C447.500802,218.510783 451.364928,223.662951 456.902855,223.662951 C462.313286,223.662951 466.367023,218.572897 466.367023,211.554048 C466.367023,206.274383 463.728825,199.638024 457.030352,199.638024 C450.400531,199.638024 447.500802,205.823242 447.500802,211.684814 Z M480.849977,204.46949 C480.849977,201.187271 480.781325,198.611187 480.591715,196.035102 L485.613117,196.035102 L485.936763,201.187271 L486.064259,201.187271 C487.610563,198.287542 491.216427,195.391081 496.368596,195.391081 C500.680595,195.391081 507.379067,197.967166 507.379067,208.653992 L507.379067,227.203106 L501.713644,227.203106 L501.713644,209.235899 C501.713644,204.214497 499.846963,200.026725 494.501916,200.026725 C490.830669,200.026725 487.930939,202.668192 486.904429,205.822915 C486.642897,206.532319 486.515401,207.496716 486.515401,208.464382 L486.515401,227.203106 L480.849977,227.203106 L480.849977,204.46949 Z" fill="#FFFFFF"></path>    </g></svg>